<svg xmlns="http://www.w3.org/2000/svg" viewBox="0 0 800 500" width="800" height="500">
  <!-- Sky background -->
  <rect width="800" height="200" fill="#3498db"/>
  
  <!-- Street background -->
  <rect y="200" width="800" height="300" fill="#7f8c8d"/>
  
  <!-- Road markings -->
  <rect y="250" width="800" height="150" fill="#34495e"/>
  <line x1="0" y1="325" x2="800" y2="325" stroke="#f1c40f" stroke-width="4" stroke-dasharray="40,20"/>
  
  <!-- Sidewalk -->
  <rect y="200" width="800" height="50" fill="#95a5a6"/>
  <rect y="400" width="800" height="100" fill="#95a5a6"/>
  
  <!-- Buildings in background -->
  <rect x="50" y="50" width="100" height="150" fill="#e74c3c"/>
  <rect x="200" y="70" width="80" height="130" fill="#9b59b6"/>
  <rect x="330" y="30" width="120" height="170" fill="#16a085"/>
  <rect x="500" y="80" width="90" height="120" fill="#f39c12"/>
  <rect x="650" y="20" width="110" height="180" fill="#2980b9"/>
  
  <!-- Windows on buildings -->
  <rect x="65" y="70" width="20" height="30" fill="#ecf0f1"/>
  <rect x="115" y="70" width="20" height="30" fill="#ecf0f1"/>
  <rect x="65" y="120" width="20" height="30" fill="#ecf0f1"/>
  <rect x="115" y="120" width="20" height="30" fill="#ecf0f1"/>
  
  <rect x="215" y="90" width="15" height="25" fill="#ecf0f1"/>
  <rect x="250" y="90" width="15" height="25" fill="#ecf0f1"/>
  <rect x="215" y="140" width="15" height="25" fill="#ecf0f1"/>
  <rect x="250" y="140" width="15" height="25" fill="#ecf0f1"/>
  
  <rect x="350" y="50" width="20" height="30" fill="#ecf0f1"/>
  <rect x="410" y="50" width="20" height="30" fill="#ecf0f1"/>
  <rect x="350" y="100" width="20" height="30" fill="#ecf0f1"/>
  <rect x="410" y="100" width="20" height="30" fill="#ecf0f1"/>
  <rect x="350" y="150" width="20" height="30" fill="#ecf0f1"/>
  <rect x="410" y="150" width="20" height="30" fill="#ecf0f1"/>
  
  <rect x="515" y="100" width="15" height="25" fill="#ecf0f1"/>
  <rect x="560" y="100" width="15" height="25" fill="#ecf0f1"/>
  <rect x="515" y="150" width="15" height="25" fill="#ecf0f1"/>
  <rect x="560" y="150" width="15" height="25" fill="#ecf0f1"/>
  
  <rect x="670" y="40" width="20" height="30" fill="#ecf0f1"/>
  <rect x="720" y="40" width="20" height="30" fill="#ecf0f1"/>
  <rect x="670" y="90" width="20" height="30" fill="#ecf0f1"/>
  <rect x="720" y="90" width="20" height="30" fill="#ecf0f1"/>
  <rect x="670" y="140" width="20" height="30" fill="#ecf0f1"/>
  <rect x="720" y="140" width="20" height="30" fill="#ecf0f1"/>
  
  <!-- Parked cars on street -->
  <rect x="100" y="260" width="120" height="60" rx="10" fill="#1abc9c"/>
  <rect x="300" y="260" width="120" height="60" rx="10" fill="#e74c3c"/>
  <rect x="500" y="260" width="120" height="60" rx="10" fill="#f1c40f"/>
  
  <!-- Car wheels -->
  <circle cx="130" cy="320" r="12" fill="#2c3e50"/>
  <circle cx="190" cy="320" r="12" fill="#2c3e50"/>
  <circle cx="330" cy="320" r="12" fill="#2c3e50"/>
  <circle cx="390" cy="320" r="12" fill="#2c3e50"/>
  <circle cx="530" cy="320" r="12" fill="#2c3e50"/>
  <circle cx="590" cy="320" r="12" fill="#2c3e50"/>
  
  <!-- Parking signs -->
  <rect x="50" y="170" width="5" height="70" fill="#7f8c8d"/>
  <rect x="40" y="170" width="25" height="25" fill="#3498db"/>
  <text x="52" y="188" font-family="Arial" font-size="20" fill="#ecf0f1" text-anchor="middle">P</text>
  
  <rect x="250" y="170" width="5" height="70" fill="#7f8c8d"/>
  <rect x="240" y="170" width="25" height="25" fill="#3498db"/>
  <text x="252" y="188" font-family="Arial" font-size="20" fill="#ecf0f1" text-anchor="middle">P</text>
  
  <rect x="450" y="170" width="5" height="70" fill="#7f8c8d"/>
  <rect x="440" y="170" width="25" height="25" fill="#3498db"/>
  <text x="452" y="188" font-family="Arial" font-size="20" fill="#ecf0f1" text-anchor="middle">P</text>
  
  <rect x="650" y="170" width="5" height="70" fill="#7f8c8d"/>
  <rect x="640" y="170" width="25" height="25" fill="#3498db"/>
  <text x="652" y="188" font-family="Arial" font-size="20" fill="#ecf0f1" text-anchor="middle">P</text>
  
  <!-- Parking spots markings -->
  <line x1="50" y1="250" x2="50" y2="400" stroke="#ecf0f1" stroke-width="2"/>
  <line x1="250" y1="250" x2="250" y2="400" stroke="#ecf0f1" stroke-width="2"/>
  <line x1="450" y1="250" x2="450" y2="400" stroke="#ecf0f1" stroke-width="2"/>
  <line x1="650" y1="250" x2="650" y2="400" stroke="#ecf0f1" stroke-width="2"/>
  <line x1="750" y1="250" x2="750" y2="400" stroke="#ecf0f1" stroke-width="2"/>
  
  <!-- People walking -->
  <circle cx="150" cy="430" r="10" fill="#f39c12"/>
  <rect x="145" y="440" width="10" height="20" fill="#f39c12"/>
  <line x1="145" y1="450" x2="135" y2="470" stroke="#f39c12" stroke-width="3"/>
  <line x1="155" y1="450" x2="165" y2="470" stroke="#f39c12" stroke-width="3"/>
  
  <circle cx="350" cy="430" r="10" fill="#9b59b6"/>
  <rect x="345" y="440" width="10" height="20" fill="#9b59b6"/>
  <line x1="345" y1="450" x2="335" y2="470" stroke="#9b59b6" stroke-width="3"/>
  <line x1="355" y1="450" x2="365" y2="470" stroke="#9b59b6" stroke-width="3"/>
  
  <circle cx="600" cy="430" r="10" fill="#2980b9"/>
  <rect x="595" y="440" width="10" height="20" fill="#2980b9"/>
  <line x1="595" y1="450" x2="585" y2="470" stroke="#2980b9" stroke-width="3"/>
  <line x1="605" y1="450" x2="615" y2="470" stroke="#2980b9" stroke-width="3"/>
  
  <!-- Title -->
  <text x="400" y="470" font-family="Arial" font-size="24" fill="#2c3e50" text-anchor="middle">STREET PARKING</text>
</svg> 